solid OpenSCAD_Model
  facet normal 0.987688 0.156434 0
    outer loop
      vertex 0.952499 0 32.385
      vertex 0.905881 0.294338 0
      vertex 0.905881 0.294338 32.385
    endloop
  endfacet
  facet normal 0.987688 0.156434 0
    outer loop
      vertex 0.905881 0.294338 0
      vertex 0.952499 0 32.385
      vertex 0.952499 0 0
    endloop
  endfacet
  facet normal -0.987688 0.156434 0
    outer loop
      vertex -0.952499 0 0
      vertex -0.905881 0.294338 32.385
      vertex -0.905881 0.294338 0
    endloop
  endfacet
  facet normal -0.987688 0.156434 0
    outer loop
      vertex -0.905881 0.294338 32.385
      vertex -0.952499 0 0
      vertex -0.952499 0 32.385
    endloop
  endfacet
  facet normal -0.156434 0.987688 0
    outer loop
      vertex 0 0.952499 0
      vertex -0.294338 0.905881 32.385
      vertex 0 0.952499 32.385
    endloop
  endfacet
  facet normal -0.156434 0.987688 0
    outer loop
      vertex -0.294338 0.905881 32.385
      vertex 0 0.952499 0
      vertex -0.294338 0.905881 0
    endloop
  endfacet
  facet normal 0.156434 -0.987688 0
    outer loop
      vertex 0 -0.952499 0
      vertex 0.294338 -0.905881 32.385
      vertex 0 -0.952499 32.385
    endloop
  endfacet
  facet normal 0.156434 -0.987688 0
    outer loop
      vertex 0.294338 -0.905881 32.385
      vertex 0 -0.952499 0
      vertex 0.294338 -0.905881 0
    endloop
  endfacet
  facet normal 0.453991 -0.891006 0
    outer loop
      vertex 0.294338 -0.905881 0
      vertex 0.559865 -0.770588 32.385
      vertex 0.294338 -0.905881 32.385
    endloop
  endfacet
  facet normal 0.453991 -0.891006 0
    outer loop
      vertex 0.559865 -0.770588 32.385
      vertex 0.294338 -0.905881 0
      vertex 0.559865 -0.770588 0
    endloop
  endfacet
  facet normal 0.453991 0.891006 -0
    outer loop
      vertex 0.559865 0.770588 0
      vertex 0.294338 0.905881 32.385
      vertex 0.559865 0.770588 32.385
    endloop
  endfacet
  facet normal 0.453991 0.891006 0
    outer loop
      vertex 0.294338 0.905881 32.385
      vertex 0.559865 0.770588 0
      vertex 0.294338 0.905881 0
    endloop
  endfacet
  facet normal 0.891006 0.453991 0
    outer loop
      vertex 0.905881 0.294338 32.385
      vertex 0.770588 0.559865 0
      vertex 0.770588 0.559865 32.385
    endloop
  endfacet
  facet normal 0.891006 0.453991 0
    outer loop
      vertex 0.770588 0.559865 0
      vertex 0.905881 0.294338 32.385
      vertex 0.905881 0.294338 0
    endloop
  endfacet
  facet normal 0.156434 0.987688 -0
    outer loop
      vertex 0.294338 0.905881 0
      vertex 0 0.952499 32.385
      vertex 0.294338 0.905881 32.385
    endloop
  endfacet
  facet normal 0.156434 0.987688 0
    outer loop
      vertex 0 0.952499 32.385
      vertex 0.294338 0.905881 0
      vertex 0 0.952499 0
    endloop
  endfacet
  facet normal -0.707107 0.707107 0
    outer loop
      vertex -0.770588 0.559865 0
      vertex -0.559865 0.770588 32.385
      vertex -0.559865 0.770588 0
    endloop
  endfacet
  facet normal -0.707107 0.707107 0
    outer loop
      vertex -0.559865 0.770588 32.385
      vertex -0.770588 0.559865 0
      vertex -0.770588 0.559865 32.385
    endloop
  endfacet
  facet normal -0.891006 0.453991 0
    outer loop
      vertex -0.905881 0.294338 0
      vertex -0.770588 0.559865 32.385
      vertex -0.770588 0.559865 0
    endloop
  endfacet
  facet normal -0.891006 0.453991 0
    outer loop
      vertex -0.770588 0.559865 32.385
      vertex -0.905881 0.294338 0
      vertex -0.905881 0.294338 32.385
    endloop
  endfacet
  facet normal -0.453991 0.891006 0
    outer loop
      vertex -0.294338 0.905881 0
      vertex -0.559865 0.770588 32.385
      vertex -0.294338 0.905881 32.385
    endloop
  endfacet
  facet normal -0.453991 0.891006 0
    outer loop
      vertex -0.559865 0.770588 32.385
      vertex -0.294338 0.905881 0
      vertex -0.559865 0.770588 0
    endloop
  endfacet
  facet normal 0 0 -1
    outer loop
      vertex 0.905881 -0.294338 0
      vertex 0.905881 0.294338 0
      vertex 0.952499 0 0
    endloop
  endfacet
  facet normal 0 0 -1
    outer loop
      vertex 0.770588 -0.559865 0
      vertex 0.905881 0.294338 0
      vertex 0.905881 -0.294338 0
    endloop
  endfacet
  facet normal 0 0 -1
    outer loop
      vertex 0.770588 -0.559865 0
      vertex 0.770588 0.559865 0
      vertex 0.905881 0.294338 0
    endloop
  endfacet
  facet normal 0 0 -1
    outer loop
      vertex 0.559865 -0.770588 0
      vertex 0.770588 0.559865 0
      vertex 0.770588 -0.559865 0
    endloop
  endfacet
  facet normal 0 0 -1
    outer loop
      vertex 0.559865 -0.770588 0
      vertex 0.559865 0.770588 0
      vertex 0.770588 0.559865 0
    endloop
  endfacet
  facet normal 0 0 -1
    outer loop
      vertex 0.294338 -0.905881 0
      vertex 0.559865 0.770588 0
      vertex 0.559865 -0.770588 0
    endloop
  endfacet
  facet normal 0 0 -1
    outer loop
      vertex 0.294338 -0.905881 0
      vertex 0.294338 0.905881 0
      vertex 0.559865 0.770588 0
    endloop
  endfacet
  facet normal 0 0 -1
    outer loop
      vertex 0 -0.952499 0
      vertex 0.294338 0.905881 0
      vertex 0.294338 -0.905881 0
    endloop
  endfacet
  facet normal 0 0 -1
    outer loop
      vertex 0 -0.952499 0
      vertex 0 0.952499 0
      vertex 0.294338 0.905881 0
    endloop
  endfacet
  facet normal 0 0 -1
    outer loop
      vertex -0.294338 -0.905881 0
      vertex 0 0.952499 0
      vertex 0 -0.952499 0
    endloop
  endfacet
  facet normal 0 0 -1
    outer loop
      vertex -0.294338 -0.905881 0
      vertex -0.294338 0.905881 0
      vertex 0 0.952499 0
    endloop
  endfacet
  facet normal 0 0 -1
    outer loop
      vertex -0.559865 -0.770588 0
      vertex -0.294338 0.905881 0
      vertex -0.294338 -0.905881 0
    endloop
  endfacet
  facet normal 0 0 -1
    outer loop
      vertex -0.559865 -0.770588 0
      vertex -0.559865 0.770588 0
      vertex -0.294338 0.905881 0
    endloop
  endfacet
  facet normal 0 0 -1
    outer loop
      vertex -0.770588 -0.559865 0
      vertex -0.559865 0.770588 0
      vertex -0.559865 -0.770588 0
    endloop
  endfacet
  facet normal 0 0 -1
    outer loop
      vertex -0.770588 -0.559865 0
      vertex -0.770588 0.559865 0
      vertex -0.559865 0.770588 0
    endloop
  endfacet
  facet normal 0 0 -1
    outer loop
      vertex -0.905881 -0.294338 0
      vertex -0.770588 0.559865 0
      vertex -0.770588 -0.559865 0
    endloop
  endfacet
  facet normal 0 0 -1
    outer loop
      vertex -0.905881 -0.294338 0
      vertex -0.905881 0.294338 0
      vertex -0.770588 0.559865 0
    endloop
  endfacet
  facet normal 0 -0 -1
    outer loop
      vertex -0.905881 0.294338 0
      vertex -0.905881 -0.294338 0
      vertex -0.952499 0 0
    endloop
  endfacet
  facet normal 0.707107 0.707107 0
    outer loop
      vertex 0.770588 0.559865 32.385
      vertex 0.559865 0.770588 0
      vertex 0.559865 0.770588 32.385
    endloop
  endfacet
  facet normal 0.707107 0.707107 0
    outer loop
      vertex 0.559865 0.770588 0
      vertex 0.770588 0.559865 32.385
      vertex 0.770588 0.559865 0
    endloop
  endfacet
  facet normal 0.987688 -0.156434 0
    outer loop
      vertex 0.905881 -0.294338 32.385
      vertex 0.952499 0 0
      vertex 0.952499 0 32.385
    endloop
  endfacet
  facet normal 0.987688 -0.156434 0
    outer loop
      vertex 0.952499 0 0
      vertex 0.905881 -0.294338 32.385
      vertex 0.905881 -0.294338 0
    endloop
  endfacet
  facet normal -0.987688 -0.156434 0
    outer loop
      vertex -0.905881 -0.294338 0
      vertex -0.952499 0 32.385
      vertex -0.952499 0 0
    endloop
  endfacet
  facet normal -0.987688 -0.156434 0
    outer loop
      vertex -0.952499 0 32.385
      vertex -0.905881 -0.294338 0
      vertex -0.905881 -0.294338 32.385
    endloop
  endfacet
  facet normal 0.707107 -0.707107 0
    outer loop
      vertex 0.559865 -0.770588 32.385
      vertex 0.770588 -0.559865 0
      vertex 0.770588 -0.559865 32.385
    endloop
  endfacet
  facet normal 0.707107 -0.707107 0
    outer loop
      vertex 0.770588 -0.559865 0
      vertex 0.559865 -0.770588 32.385
      vertex 0.559865 -0.770588 0
    endloop
  endfacet
  facet normal -0.891006 -0.453991 0
    outer loop
      vertex -0.770588 -0.559865 0
      vertex -0.905881 -0.294338 32.385
      vertex -0.905881 -0.294338 0
    endloop
  endfacet
  facet normal -0.891006 -0.453991 0
    outer loop
      vertex -0.905881 -0.294338 32.385
      vertex -0.770588 -0.559865 0
      vertex -0.770588 -0.559865 32.385
    endloop
  endfacet
  facet normal 0.891006 -0.453991 0
    outer loop
      vertex 0.770588 -0.559865 32.385
      vertex 0.905881 -0.294338 0
      vertex 0.905881 -0.294338 32.385
    endloop
  endfacet
  facet normal 0.891006 -0.453991 0
    outer loop
      vertex 0.905881 -0.294338 0
      vertex 0.770588 -0.559865 32.385
      vertex 0.770588 -0.559865 0
    endloop
  endfacet
  facet normal -0.156434 -0.987688 0
    outer loop
      vertex -0.294338 -0.905881 0
      vertex 0 -0.952499 32.385
      vertex -0.294338 -0.905881 32.385
    endloop
  endfacet
  facet normal -0.156434 -0.987688 -0
    outer loop
      vertex 0 -0.952499 32.385
      vertex -0.294338 -0.905881 0
      vertex 0 -0.952499 0
    endloop
  endfacet
  facet normal -0.707107 -0.707107 0
    outer loop
      vertex -0.559865 -0.770588 0
      vertex -0.770588 -0.559865 32.385
      vertex -0.770588 -0.559865 0
    endloop
  endfacet
  facet normal -0.707107 -0.707107 0
    outer loop
      vertex -0.770588 -0.559865 32.385
      vertex -0.559865 -0.770588 0
      vertex -0.559865 -0.770588 32.385
    endloop
  endfacet
  facet normal -0.453991 -0.891006 0
    outer loop
      vertex -0.559865 -0.770588 0
      vertex -0.294338 -0.905881 32.385
      vertex -0.559865 -0.770588 32.385
    endloop
  endfacet
  facet normal -0.453991 -0.891006 -0
    outer loop
      vertex -0.294338 -0.905881 32.385
      vertex -0.559865 -0.770588 0
      vertex -0.294338 -0.905881 0
    endloop
  endfacet
  facet normal 0.968965 0.153466 0.193793
    outer loop
      vertex 0.952499 0 32.385
      vertex 0.30196 0.0981121 35.56
      vertex 0.317499 0 35.56
    endloop
  endfacet
  facet normal 0.968964 0.153468 0.193793
    outer loop
      vertex 0.905881 0.294338 32.385
      vertex 0.30196 0.0981121 35.56
      vertex 0.952499 0 32.385
    endloop
  endfacet
  facet normal -0.968965 -0.153466 0.193793
    outer loop
      vertex -0.317499 0 35.56
      vertex -0.952499 0 32.385
      vertex -0.30196 -0.0981121 35.56
    endloop
  endfacet
  facet normal 0.693702 -0.693702 0.193793
    outer loop
      vertex 0.186622 -0.256863 35.56
      vertex 0.770588 -0.559865 32.385
      vertex 0.256863 -0.186622 35.56
    endloop
  endfacet
  facet normal 0.693702 -0.693702 0.193793
    outer loop
      vertex 0.770588 -0.559865 32.385
      vertex 0.186622 -0.256863 35.56
      vertex 0.559865 -0.770588 32.385
    endloop
  endfacet
  facet normal 0.874115 0.445385 0.193793
    outer loop
      vertex 0.770588 0.559865 32.385
      vertex 0.256863 0.186622 35.56
      vertex 0.905881 0.294338 32.385
    endloop
  endfacet
  facet normal -0.153468 0.968964 0.193793
    outer loop
      vertex 0 0.952499 32.385
      vertex -0.294338 0.905881 32.385
      vertex -0.0981121 0.30196 35.56
    endloop
  endfacet
  facet normal 0.153466 -0.968965 0.193793
    outer loop
      vertex 0 -0.317499 35.56
      vertex 0 -0.952499 32.385
      vertex 0.0981121 -0.30196 35.56
    endloop
  endfacet
  facet normal 0.874117 -0.44538 0.193793
    outer loop
      vertex 0.30196 -0.0981121 35.56
      vertex 0.256863 -0.186622 35.56
      vertex 0.905881 -0.294338 32.385
    endloop
  endfacet
  facet normal 0.445385 0.874115 0.193793
    outer loop
      vertex 0.294338 0.905881 32.385
      vertex 0.186622 0.256863 35.56
      vertex 0.559865 0.770588 32.385
    endloop
  endfacet
  facet normal 0.153468 0.968964 0.193793
    outer loop
      vertex 0.294338 0.905881 32.385
      vertex 0 0.952499 32.385
      vertex 0.0981121 0.30196 35.56
    endloop
  endfacet
  facet normal -0.693702 -0.693702 0.193793
    outer loop
      vertex -0.770588 -0.559865 32.385
      vertex -0.186622 -0.256863 35.56
      vertex -0.256863 -0.186622 35.56
    endloop
  endfacet
  facet normal -0.693702 -0.693702 0.193793
    outer loop
      vertex -0.186622 -0.256863 35.56
      vertex -0.770588 -0.559865 32.385
      vertex -0.559865 -0.770588 32.385
    endloop
  endfacet
  facet normal -0.968964 -0.153468 0.193793
    outer loop
      vertex -0.30196 -0.0981121 35.56
      vertex -0.952499 0 32.385
      vertex -0.905881 -0.294338 32.385
    endloop
  endfacet
  facet normal -0.874115 -0.445385 0.193793
    outer loop
      vertex -0.256863 -0.186622 35.56
      vertex -0.905881 -0.294338 32.385
      vertex -0.770588 -0.559865 32.385
    endloop
  endfacet
  facet normal 0.153468 -0.968964 0.193793
    outer loop
      vertex 0.0981121 -0.30196 35.56
      vertex 0 -0.952499 32.385
      vertex 0.294338 -0.905881 32.385
    endloop
  endfacet
  facet normal -0.445385 0.874115 0.193793
    outer loop
      vertex -0.294338 0.905881 32.385
      vertex -0.559865 0.770588 32.385
      vertex -0.186622 0.256863 35.56
    endloop
  endfacet
  facet normal -0.968964 0.153468 0.193793
    outer loop
      vertex -0.905881 0.294338 32.385
      vertex -0.952499 0 32.385
      vertex -0.30196 0.0981121 35.56
    endloop
  endfacet
  facet normal -0.874115 0.445385 0.193793
    outer loop
      vertex -0.770588 0.559865 32.385
      vertex -0.905881 0.294338 32.385
      vertex -0.256863 0.186622 35.56
    endloop
  endfacet
  facet normal 0.874117 0.44538 0.193793
    outer loop
      vertex 0.905881 0.294338 32.385
      vertex 0.256863 0.186622 35.56
      vertex 0.30196 0.0981121 35.56
    endloop
  endfacet
  facet normal 0.693702 0.693702 0.193793
    outer loop
      vertex 0.186622 0.256863 35.56
      vertex 0.770588 0.559865 32.385
      vertex 0.559865 0.770588 32.385
    endloop
  endfacet
  facet normal 0.693702 0.693702 0.193793
    outer loop
      vertex 0.770588 0.559865 32.385
      vertex 0.186622 0.256863 35.56
      vertex 0.256863 0.186622 35.56
    endloop
  endfacet
  facet normal 0.44538 0.874117 0.193793
    outer loop
      vertex 0.294338 0.905881 32.385
      vertex 0.0981121 0.30196 35.56
      vertex 0.186622 0.256863 35.56
    endloop
  endfacet
  facet normal -0.874117 -0.44538 0.193793
    outer loop
      vertex -0.30196 -0.0981121 35.56
      vertex -0.905881 -0.294338 32.385
      vertex -0.256863 -0.186622 35.56
    endloop
  endfacet
  facet normal -0.153468 -0.968964 0.193793
    outer loop
      vertex -0.0981121 -0.30196 35.56
      vertex -0.294338 -0.905881 32.385
      vertex 0 -0.952499 32.385
    endloop
  endfacet
  facet normal 0.44538 -0.874117 0.193793
    outer loop
      vertex 0.186622 -0.256863 35.56
      vertex 0.0981121 -0.30196 35.56
      vertex 0.294338 -0.905881 32.385
    endloop
  endfacet
  facet normal 0.445385 -0.874115 0.193793
    outer loop
      vertex 0.559865 -0.770588 32.385
      vertex 0.186622 -0.256863 35.56
      vertex 0.294338 -0.905881 32.385
    endloop
  endfacet
  facet normal 0.874115 -0.445385 0.193793
    outer loop
      vertex 0.905881 -0.294338 32.385
      vertex 0.256863 -0.186622 35.56
      vertex 0.770588 -0.559865 32.385
    endloop
  endfacet
  facet normal 0.968964 -0.153468 0.193793
    outer loop
      vertex 0.952499 0 32.385
      vertex 0.30196 -0.0981121 35.56
      vertex 0.905881 -0.294338 32.385
    endloop
  endfacet
  facet normal 0.968965 -0.153466 0.193793
    outer loop
      vertex 0.317499 0 35.56
      vertex 0.30196 -0.0981121 35.56
      vertex 0.952499 0 32.385
    endloop
  endfacet
  facet normal 0 0 1
    outer loop
      vertex 0.30196 0.0981121 35.56
      vertex 0.30196 -0.0981121 35.56
      vertex 0.317499 0 35.56
    endloop
  endfacet
  facet normal 0 0 1
    outer loop
      vertex 0.256863 0.186622 35.56
      vertex 0.30196 -0.0981121 35.56
      vertex 0.30196 0.0981121 35.56
    endloop
  endfacet
  facet normal 0 0 1
    outer loop
      vertex 0.256863 0.186622 35.56
      vertex 0.256863 -0.186622 35.56
      vertex 0.30196 -0.0981121 35.56
    endloop
  endfacet
  facet normal 0 0 1
    outer loop
      vertex 0.186622 0.256863 35.56
      vertex 0.256863 -0.186622 35.56
      vertex 0.256863 0.186622 35.56
    endloop
  endfacet
  facet normal 0 0 1
    outer loop
      vertex 0.186622 0.256863 35.56
      vertex 0.186622 -0.256863 35.56
      vertex 0.256863 -0.186622 35.56
    endloop
  endfacet
  facet normal 0 0 1
    outer loop
      vertex 0.0981121 0.30196 35.56
      vertex 0.186622 -0.256863 35.56
      vertex 0.186622 0.256863 35.56
    endloop
  endfacet
  facet normal 0 0 1
    outer loop
      vertex 0.0981121 0.30196 35.56
      vertex 0.0981121 -0.30196 35.56
      vertex 0.186622 -0.256863 35.56
    endloop
  endfacet
  facet normal 0 0 1
    outer loop
      vertex 0 0.317499 35.56
      vertex 0.0981121 -0.30196 35.56
      vertex 0.0981121 0.30196 35.56
    endloop
  endfacet
  facet normal 0 0 1
    outer loop
      vertex 0 0.317499 35.56
      vertex 0 -0.317499 35.56
      vertex 0.0981121 -0.30196 35.56
    endloop
  endfacet
  facet normal -0 0 1
    outer loop
      vertex -0.0981121 0.30196 35.56
      vertex 0 -0.317499 35.56
      vertex 0 0.317499 35.56
    endloop
  endfacet
  facet normal 0 0 1
    outer loop
      vertex -0.0981121 0.30196 35.56
      vertex -0.0981121 -0.30196 35.56
      vertex 0 -0.317499 35.56
    endloop
  endfacet
  facet normal -0 0 1
    outer loop
      vertex -0.186622 0.256863 35.56
      vertex -0.0981121 -0.30196 35.56
      vertex -0.0981121 0.30196 35.56
    endloop
  endfacet
  facet normal 0 0 1
    outer loop
      vertex -0.186622 0.256863 35.56
      vertex -0.186622 -0.256863 35.56
      vertex -0.0981121 -0.30196 35.56
    endloop
  endfacet
  facet normal -0 0 1
    outer loop
      vertex -0.256863 0.186622 35.56
      vertex -0.186622 -0.256863 35.56
      vertex -0.186622 0.256863 35.56
    endloop
  endfacet
  facet normal 0 0 1
    outer loop
      vertex -0.256863 0.186622 35.56
      vertex -0.256863 -0.186622 35.56
      vertex -0.186622 -0.256863 35.56
    endloop
  endfacet
  facet normal -0 0 1
    outer loop
      vertex -0.30196 0.0981121 35.56
      vertex -0.256863 -0.186622 35.56
      vertex -0.256863 0.186622 35.56
    endloop
  endfacet
  facet normal 0 0 1
    outer loop
      vertex -0.30196 0.0981121 35.56
      vertex -0.30196 -0.0981121 35.56
      vertex -0.256863 -0.186622 35.56
    endloop
  endfacet
  facet normal 0 -0 1
    outer loop
      vertex -0.30196 -0.0981121 35.56
      vertex -0.30196 0.0981121 35.56
      vertex -0.317499 0 35.56
    endloop
  endfacet
  facet normal -0.968965 0.153466 0.193793
    outer loop
      vertex -0.30196 0.0981121 35.56
      vertex -0.952499 0 32.385
      vertex -0.317499 0 35.56
    endloop
  endfacet
  facet normal -0.44538 0.874117 0.193793
    outer loop
      vertex -0.0981121 0.30196 35.56
      vertex -0.294338 0.905881 32.385
      vertex -0.186622 0.256863 35.56
    endloop
  endfacet
  facet normal -0.874117 0.44538 0.193793
    outer loop
      vertex -0.256863 0.186622 35.56
      vertex -0.905881 0.294338 32.385
      vertex -0.30196 0.0981121 35.56
    endloop
  endfacet
  facet normal 0.153466 0.968965 0.193793
    outer loop
      vertex 0 0.952499 32.385
      vertex 0 0.317499 35.56
      vertex 0.0981121 0.30196 35.56
    endloop
  endfacet
  facet normal -0.153466 0.968965 0.193793
    outer loop
      vertex 0 0.952499 32.385
      vertex -0.0981121 0.30196 35.56
      vertex 0 0.317499 35.56
    endloop
  endfacet
  facet normal -0.153466 -0.968965 0.193793
    outer loop
      vertex 0 -0.317499 35.56
      vertex -0.0981121 -0.30196 35.56
      vertex 0 -0.952499 32.385
    endloop
  endfacet
  facet normal -0.445385 -0.874115 0.193793
    outer loop
      vertex -0.186622 -0.256863 35.56
      vertex -0.559865 -0.770588 32.385
      vertex -0.294338 -0.905881 32.385
    endloop
  endfacet
  facet normal -0.44538 -0.874117 0.193793
    outer loop
      vertex -0.186622 -0.256863 35.56
      vertex -0.294338 -0.905881 32.385
      vertex -0.0981121 -0.30196 35.56
    endloop
  endfacet
  facet normal -0.693702 0.693702 0.193793
    outer loop
      vertex -0.559865 0.770588 32.385
      vertex -0.256863 0.186622 35.56
      vertex -0.186622 0.256863 35.56
    endloop
  endfacet
  facet normal -0.693702 0.693702 0.193793
    outer loop
      vertex -0.256863 0.186622 35.56
      vertex -0.559865 0.770588 32.385
      vertex -0.770588 0.559865 32.385
    endloop
  endfacet
endsolid OpenSCAD_Model
